<svg width="20" height="20" viewBox="0 0 20 20" fill="none" xmlns="http://www.w3.org/2000/svg">
<path d="M11.1849 3.76191L16.5655 9.14253C16.6211 9.19806 16.6652 9.26399 16.6953 9.33657C16.7254 9.40915 16.7409 9.48694 16.7409 9.56551C16.7409 9.64407 16.7254 9.72187 16.6953 9.79445C16.6652 9.86703 16.6211 9.93296 16.5655 9.98849L11.1849 15.3691C11.0727 15.4813 10.9206 15.5443 10.7619 15.5443C10.6033 15.5443 10.4512 15.4813 10.339 15.3691C10.2268 15.2569 10.1638 15.1048 10.1638 14.9461C10.1638 14.7875 10.2268 14.6353 10.339 14.5232L14.6995 10.1634H2.98994C2.83138 10.1634 2.67931 10.1004 2.5672 9.98825C2.45508 9.87613 2.39209 9.72407 2.39209 9.56551C2.39209 9.40695 2.45508 9.25488 2.5672 9.14277C2.67931 9.03065 2.83138 8.96766 2.98994 8.96766H14.6995L10.339 4.60786C10.2268 4.49568 10.1638 4.34353 10.1638 4.18489C10.1638 4.02624 10.2268 3.87409 10.339 3.76191C10.4512 3.64973 10.6033 3.5867 10.7619 3.5867C10.9206 3.5867 11.0727 3.64973 11.1849 3.76191Z" fill="#131212"/>
</svg>
