<svg width="64" height="94" viewBox="0 0 64 94" fill="none" xmlns="http://www.w3.org/2000/svg">
<path fill-rule="evenodd" clip-rule="evenodd" d="M2 4C3.10457 4 4 3.10457 4 2C4 0.895431 3.10457 0 2 0C0.895431 0 0 0.895431 0 2C0 3.10457 0.895431 4 2 4ZM12 4C13.1046 4 14 3.10457 14 2C14 0.895431 13.1046 0 12 0C10.8954 0 10 0.895431 10 2C10 3.10457 10.8954 4 12 4ZM24 2C24 3.10457 23.1046 4 22 4C20.8954 4 20 3.10457 20 2C20 0.895431 20.8954 0 22 0C23.1046 0 24 0.895431 24 2ZM32 4C33.1046 4 34 3.10457 34 2C34 0.895431 33.1046 0 32 0C30.8954 0 30 0.895431 30 2C30 3.10457 30.8954 4 32 4ZM44 2C44 3.10457 43.1046 4 42 4C40.8954 4 40 3.10457 40 2C40 0.895431 40.8954 0 42 0C43.1046 0 44 0.895431 44 2ZM52 4C53.1046 4 54 3.10457 54 2C54 0.895431 53.1046 0 52 0C50.8954 0 50 0.895431 50 2C50 3.10457 50.8954 4 52 4ZM64 2C64 3.10457 63.1046 4 62 4C60.8954 4 60 3.10457 60 2C60 0.895431 60.8954 0 62 0C63.1046 0 64 0.895431 64 2ZM2 14C3.10457 14 4 13.1046 4 12C4 10.8954 3.10457 10 2 10C0.895431 10 0 10.8954 0 12C0 13.1046 0.895431 14 2 14ZM12 14C13.1046 14 14 13.1046 14 12C14 10.8954 13.1046 10 12 10C10.8954 10 10 10.8954 10 12C10 13.1046 10.8954 14 12 14ZM24 12C24 13.1046 23.1046 14 22 14C20.8954 14 20 13.1046 20 12C20 10.8954 20.8954 10 22 10C23.1046 10 24 10.8954 24 12ZM32 14C33.1046 14 34 13.1046 34 12C34 10.8954 33.1046 10 32 10C30.8954 10 30 10.8954 30 12C30 13.1046 30.8954 14 32 14ZM44 12C44 13.1046 43.1046 14 42 14C40.8954 14 40 13.1046 40 12C40 10.8954 40.8954 10 42 10C43.1046 10 44 10.8954 44 12ZM52 14C53.1046 14 54 13.1046 54 12C54 10.8954 53.1046 10 52 10C50.8954 10 50 10.8954 50 12C50 13.1046 50.8954 14 52 14ZM64 12C64 13.1046 63.1046 14 62 14C60.8954 14 60 13.1046 60 12C60 10.8954 60.8954 10 62 10C63.1046 10 64 10.8954 64 12ZM4 22C4 23.1046 3.10457 24 2 24C0.895431 24 0 23.1046 0 22C0 20.8954 0.895431 20 2 20C3.10457 20 4 20.8954 4 22ZM14 22C14 23.1046 13.1046 24 12 24C10.8954 24 10 23.1046 10 22C10 20.8954 10.8954 20 12 20C13.1046 20 14 20.8954 14 22ZM22 24C23.1046 24 24 23.1046 24 22C24 20.8954 23.1046 20 22 20C20.8954 20 20 20.8954 20 22C20 23.1046 20.8954 24 22 24ZM34 22C34 23.1046 33.1046 24 32 24C30.8954 24 30 23.1046 30 22C30 20.8954 30.8954 20 32 20C33.1046 20 34 20.8954 34 22ZM42 24C43.1046 24 44 23.1046 44 22C44 20.8954 43.1046 20 42 20C40.8954 20 40 20.8954 40 22C40 23.1046 40.8954 24 42 24ZM54 22C54 23.1046 53.1046 24 52 24C50.8954 24 50 23.1046 50 22C50 20.8954 50.8954 20 52 20C53.1046 20 54 20.8954 54 22ZM62 24C63.1046 24 64 23.1046 64 22C64 20.8954 63.1046 20 62 20C60.8954 20 60 20.8954 60 22C60 23.1046 60.8954 24 62 24ZM2 34C3.10457 34 4 33.1046 4 32C4 30.8954 3.10457 30 2 30C0.895431 30 0 30.8954 0 32C0 33.1046 0.895431 34 2 34ZM12 34C13.1046 34 14 33.1046 14 32C14 30.8954 13.1046 30 12 30C10.8954 30 10 30.8954 10 32C10 33.1046 10.8954 34 12 34ZM24 32C24 33.1046 23.1046 34 22 34C20.8954 34 20 33.1046 20 32C20 30.8954 20.8954 30 22 30C23.1046 30 24 30.8954 24 32ZM32 34C33.1046 34 34 33.1046 34 32C34 30.8954 33.1046 30 32 30C30.8954 30 30 30.8954 30 32C30 33.1046 30.8954 34 32 34ZM44 32C44 33.1046 43.1046 34 42 34C40.8954 34 40 33.1046 40 32C40 30.8954 40.8954 30 42 30C43.1046 30 44 30.8954 44 32ZM52 34C53.1046 34 54 33.1046 54 32C54 30.8954 53.1046 30 52 30C50.8954 30 50 30.8954 50 32C50 33.1046 50.8954 34 52 34ZM64 32C64 33.1046 63.1046 34 62 34C60.8954 34 60 33.1046 60 32C60 30.8954 60.8954 30 62 30C63.1046 30 64 30.8954 64 32ZM4 42C4 43.1046 3.10457 44 2 44C0.895431 44 0 43.1046 0 42C0 40.8954 0.895431 40 2 40C3.10457 40 4 40.8954 4 42ZM14 42C14 43.1046 13.1046 44 12 44C10.8954 44 10 43.1046 10 42C10 40.8954 10.8954 40 12 40C13.1046 40 14 40.8954 14 42ZM22 44C23.1046 44 24 43.1046 24 42C24 40.8954 23.1046 40 22 40C20.8954 40 20 40.8954 20 42C20 43.1046 20.8954 44 22 44ZM34 42C34 43.1046 33.1046 44 32 44C30.8954 44 30 43.1046 30 42C30 40.8954 30.8954 40 32 40C33.1046 40 34 40.8954 34 42ZM42 44C43.1046 44 44 43.1046 44 42C44 40.8954 43.1046 40 42 40C40.8954 40 40 40.8954 40 42C40 43.1046 40.8954 44 42 44ZM54 42C54 43.1046 53.1046 44 52 44C50.8954 44 50 43.1046 50 42C50 40.8954 50.8954 40 52 40C53.1046 40 54 40.8954 54 42ZM62 44C63.1046 44 64 43.1046 64 42C64 40.8954 63.1046 40 62 40C60.8954 40 60 40.8954 60 42C60 43.1046 60.8954 44 62 44ZM2 54C3.10457 54 4 53.1046 4 52C4 50.8954 3.10457 50 2 50C0.895431 50 0 50.8954 0 52C0 53.1046 0.895431 54 2 54ZM12 54C13.1046 54 14 53.1046 14 52C14 50.8954 13.1046 50 12 50C10.8954 50 10 50.8954 10 52C10 53.1046 10.8954 54 12 54ZM24 52C24 53.1046 23.1046 54 22 54C20.8954 54 20 53.1046 20 52C20 50.8954 20.8954 50 22 50C23.1046 50 24 50.8954 24 52ZM32 54C33.1046 54 34 53.1046 34 52C34 50.8954 33.1046 50 32 50C30.8954 50 30 50.8954 30 52C30 53.1046 30.8954 54 32 54ZM44 52C44 53.1046 43.1046 54 42 54C40.8954 54 40 53.1046 40 52C40 50.8954 40.8954 50 42 50C43.1046 50 44 50.8954 44 52ZM52 54C53.1046 54 54 53.1046 54 52C54 50.8954 53.1046 50 52 50C50.8954 50 50 50.8954 50 52C50 53.1046 50.8954 54 52 54ZM64 52C64 53.1046 63.1046 54 62 54C60.8954 54 60 53.1046 60 52C60 50.8954 60.8954 50 62 50C63.1046 50 64 50.8954 64 52ZM4 62C4 63.1046 3.10457 64 2 64C0.895431 64 0 63.1046 0 62C0 60.8954 0.895431 60 2 60C3.10457 60 4 60.8954 4 62ZM14 62C14 63.1046 13.1046 64 12 64C10.8954 64 10 63.1046 10 62C10 60.8954 10.8954 60 12 60C13.1046 60 14 60.8954 14 62ZM22 64C23.1046 64 24 63.1046 24 62C24 60.8954 23.1046 60 22 60C20.8954 60 20 60.8954 20 62C20 63.1046 20.8954 64 22 64ZM34 62C34 63.1046 33.1046 64 32 64C30.8954 64 30 63.1046 30 62C30 60.8954 30.8954 60 32 60C33.1046 60 34 60.8954 34 62ZM42 64C43.1046 64 44 63.1046 44 62C44 60.8954 43.1046 60 42 60C40.8954 60 40 60.8954 40 62C40 63.1046 40.8954 64 42 64ZM54 62C54 63.1046 53.1046 64 52 64C50.8954 64 50 63.1046 50 62C50 60.8954 50.8954 60 52 60C53.1046 60 54 60.8954 54 62ZM62 64C63.1046 64 64 63.1046 64 62C64 60.8954 63.1046 60 62 60C60.8954 60 60 60.8954 60 62C60 63.1046 60.8954 64 62 64ZM2 74C3.10457 74 4 73.1046 4 72C4 70.8954 3.10457 70 2 70C0.895431 70 0 70.8954 0 72C0 73.1046 0.895431 74 2 74ZM12 74C13.1046 74 14 73.1046 14 72C14 70.8954 13.1046 70 12 70C10.8954 70 10 70.8954 10 72C10 73.1046 10.8954 74 12 74ZM24 72C24 73.1046 23.1046 74 22 74C20.8954 74 20 73.1046 20 72C20 70.8954 20.8954 70 22 70C23.1046 70 24 70.8954 24 72ZM32 74C33.1046 74 34 73.1046 34 72C34 70.8954 33.1046 70 32 70C30.8954 70 30 70.8954 30 72C30 73.1046 30.8954 74 32 74ZM44 72C44 73.1046 43.1046 74 42 74C40.8954 74 40 73.1046 40 72C40 70.8954 40.8954 70 42 70C43.1046 70 44 70.8954 44 72ZM52 74C53.1046 74 54 73.1046 54 72C54 70.8954 53.1046 70 52 70C50.8954 70 50 70.8954 50 72C50 73.1046 50.8954 74 52 74ZM64 72C64 73.1046 63.1046 74 62 74C60.8954 74 60 73.1046 60 72C60 70.8954 60.8954 70 62 70C63.1046 70 64 70.8954 64 72ZM4 82C4 83.1046 3.10457 84 2 84C0.895431 84 0 83.1046 0 82C0 80.8954 0.895431 80 2 80C3.10457 80 4 80.8954 4 82ZM14 82C14 83.1046 13.1046 84 12 84C10.8954 84 10 83.1046 10 82C10 80.8954 10.8954 80 12 80C13.1046 80 14 80.8954 14 82ZM22 84C23.1046 84 24 83.1046 24 82C24 80.8954 23.1046 80 22 80C20.8954 80 20 80.8954 20 82C20 83.1046 20.8954 84 22 84ZM34 82C34 83.1046 33.1046 84 32 84C30.8954 84 30 83.1046 30 82C30 80.8954 30.8954 80 32 80C33.1046 80 34 80.8954 34 82ZM42 84C43.1046 84 44 83.1046 44 82C44 80.8954 43.1046 80 42 80C40.8954 80 40 80.8954 40 82C40 83.1046 40.8954 84 42 84ZM54 82C54 83.1046 53.1046 84 52 84C50.8954 84 50 83.1046 50 82C50 80.8954 50.8954 80 52 80C53.1046 80 54 80.8954 54 82ZM62 84C63.1046 84 64 83.1046 64 82C64 80.8954 63.1046 80 62 80C60.8954 80 60 80.8954 60 82C60 83.1046 60.8954 84 62 84ZM2 94C3.10457 94 4 93.1046 4 92C4 90.8954 3.10457 90 2 90C0.895431 90 0 90.8954 0 92C0 93.1046 0.895431 94 2 94ZM12 94C13.1046 94 14 93.1046 14 92C14 90.8954 13.1046 90 12 90C10.8954 90 10 90.8954 10 92C10 93.1046 10.8954 94 12 94ZM24 92C24 93.1046 23.1046 94 22 94C20.8954 94 20 93.1046 20 92C20 90.8954 20.8954 90 22 90C23.1046 90 24 90.8954 24 92ZM32 94C33.1046 94 34 93.1046 34 92C34 90.8954 33.1046 90 32 90C30.8954 90 30 90.8954 30 92C30 93.1046 30.8954 94 32 94ZM44 92C44 93.1046 43.1046 94 42 94C40.8954 94 40 93.1046 40 92C40 90.8954 40.8954 90 42 90C43.1046 90 44 90.8954 44 92ZM52 94C53.1046 94 54 93.1046 54 92C54 90.8954 53.1046 90 52 90C50.8954 90 50 90.8954 50 92C50 93.1046 50.8954 94 52 94ZM64 92C64 93.1046 63.1046 94 62 94C60.8954 94 60 93.1046 60 92C60 90.8954 60.8954 90 62 90C63.1046 90 64 90.8954 64 92Z" fill="#FFDCD1"/>
</svg>
