<svg width="25" height="24" viewBox="0 0 25 24" fill="none" xmlns="http://www.w3.org/2000/svg">
<g clip-path="url(#clip0_1_731)">
<g clip-path="url(#clip1_1_731)">
<path d="M22.675 0H1.32438C0.973053 0 0.636114 0.139565 0.387687 0.387992C0.13926 0.636419 -0.000305176 0.973359 -0.000305176 1.32469L-0.000305176 22.6753C-0.000305176 23.0266 0.13926 23.3636 0.387687 23.612C0.636114 23.8604 0.973053 24 1.32438 24H12.82V14.7188H9.70282V11.0859H12.82V8.41406C12.82 5.31422 14.7133 3.62625 17.4794 3.62625C18.8036 3.62625 19.9422 3.72469 20.2731 3.76688V7.00641H18.3653C16.8606 7.00641 16.5691 7.72125 16.5691 8.77078V11.0859H20.1663L19.6975 14.7188H16.5691V24H22.6741C22.8481 24.0001 23.0205 23.966 23.1813 23.8994C23.3421 23.8329 23.4883 23.7354 23.6114 23.6123C23.7345 23.4893 23.8321 23.3432 23.8988 23.1825C23.9654 23.0217 23.9997 22.8494 23.9997 22.6753V1.32469C23.9997 0.973359 23.8601 0.636419 23.6117 0.387992C23.3633 0.139565 23.0263 0 22.675 0Z" fill="black"/>
<path d="M16.57 24V14.7187H19.6989L20.1677 11.0859H16.57V8.77218C16.57 7.72265 16.8606 7.0078 18.3663 7.0078H20.2731V3.76733C19.9413 3.72327 18.8027 3.62671 17.4794 3.62671C14.7138 3.62671 12.82 5.31421 12.82 8.41452V11.0864H9.70282V14.7187H12.82V24H16.57Z" fill="#FEFEFA"/>
</g>
</g>
<defs>
<clipPath id="clip0_1_731">
<rect width="24" height="24" fill="white" transform="translate(0.320007)"/>
</clipPath>
<clipPath id="clip1_1_731">
<rect width="24" height="24" fill="white" transform="translate(-0.000305176)"/>
</clipPath>
</defs>
</svg>
