<svg width="25" height="25" viewBox="0 0 25 25" fill="none" xmlns="http://www.w3.org/2000/svg">
<g clip-path="url(#clip0_1_737)">
<g clip-path="url(#clip1_1_737)">
<path d="M6.08547 24.9151C4.65818 24.8502 3.88283 24.6127 3.36713 24.4115C2.6838 24.1455 2.19662 23.8288 1.68377 23.3166C1.17091 22.8045 0.853501 22.3173 0.588871 21.634C0.387723 21.1183 0.150199 20.3429 0.0852894 18.9157C0.0139606 17.3728 -0.000305176 16.9099 -0.000305176 13.0011C-0.000305176 9.09225 0.0153872 8.63004 0.0845761 7.08577C0.149485 5.65848 0.388437 4.88457 0.588157 4.36743C0.854214 3.6841 1.17163 3.19693 1.68305 2.68336C2.1952 2.17122 2.68237 1.85309 3.36641 1.58846C3.88212 1.38732 4.65746 1.14979 6.08475 1.08488C7.62831 1.01427 8.09195 1 11.9993 1C15.9082 1 16.3704 1.01569 17.9146 1.08488C19.3419 1.14979 20.1158 1.38874 20.633 1.58846C21.3163 1.85309 21.8035 2.17122 22.3163 2.68336C22.8292 3.1955 23.1452 3.68339 23.4112 4.36672C23.6124 4.88243 23.8499 5.65777 23.9148 7.08506C23.9854 8.62933 23.9997 9.09154 23.9997 13.0004C23.9997 16.9077 23.9854 17.3714 23.9148 18.9157C23.8499 20.3429 23.611 21.1183 23.4112 21.634C23.1452 22.3173 22.8285 22.8045 22.3163 23.3166C21.8042 23.8288 21.3163 24.1455 20.633 24.4115C20.1173 24.6127 19.3419 24.8502 17.9146 24.9151C16.3718 24.9857 15.9082 25 11.9993 25C8.09195 25 7.62831 24.9864 6.08547 24.9151Z" fill="url(#paint0_radial_1_737)"/>
<path d="M6.08547 24.9151C4.65818 24.8502 3.88283 24.6127 3.36713 24.4115C2.6838 24.1455 2.19662 23.8288 1.68377 23.3166C1.17091 22.8045 0.853501 22.3173 0.588871 21.634C0.387723 21.1183 0.150199 20.3429 0.0852894 18.9157C0.0139606 17.3728 -0.000305176 16.9099 -0.000305176 13.0011C-0.000305176 9.09225 0.0153872 8.63004 0.0845761 7.08577C0.149485 5.65848 0.388437 4.88457 0.588157 4.36743C0.854214 3.6841 1.17163 3.19693 1.68305 2.68336C2.1952 2.17122 2.68237 1.85309 3.36641 1.58846C3.88212 1.38732 4.65746 1.14979 6.08475 1.08488C7.62831 1.01427 8.09195 1 11.9993 1C15.9082 1 16.3704 1.01569 17.9146 1.08488C19.3419 1.14979 20.1158 1.38874 20.633 1.58846C21.3163 1.85309 21.8035 2.17122 22.3163 2.68336C22.8292 3.1955 23.1452 3.68339 23.4112 4.36672C23.6124 4.88243 23.8499 5.65777 23.9148 7.08506C23.9854 8.62933 23.9997 9.09154 23.9997 13.0004C23.9997 16.9077 23.9854 17.3714 23.9148 18.9157C23.8499 20.3429 23.611 21.1183 23.4112 21.634C23.1452 22.3173 22.8285 22.8045 22.3163 23.3166C21.8042 23.8288 21.3163 24.1455 20.633 24.4115C20.1173 24.6127 19.3419 24.8502 17.9146 24.9151C16.3718 24.9857 15.9082 25 11.9993 25C8.09195 25 7.62831 24.9864 6.08547 24.9151Z" fill="black"/>
<path d="M9.05312 13.0511C9.05312 11.4098 10.3833 10.0788 12.0247 10.0788C13.666 10.0788 14.997 11.4098 14.997 13.0511C14.997 14.6925 13.666 16.0234 12.0247 16.0234C10.3833 16.0234 9.05312 14.6925 9.05312 13.0511ZM7.44637 13.0511C7.44637 15.5797 9.49608 17.6294 12.0247 17.6294C14.5533 17.6294 16.603 15.5797 16.603 13.0511C16.603 10.5225 14.5533 8.4728 12.0247 8.4728C9.49608 8.4728 7.44644 10.5224 7.44644 13.0511M15.7144 8.29127C15.7143 8.50288 15.777 8.70977 15.8945 8.88576C16.012 9.06176 16.179 9.19896 16.3745 9.28002C16.5699 9.36108 16.7851 9.38235 16.9926 9.34115C17.2002 9.29995 17.3909 9.19813 17.5406 9.04855C17.6903 8.89898 17.7922 8.70838 17.8336 8.50085C17.875 8.29332 17.8539 8.07818 17.773 7.88265C17.6921 7.68711 17.555 7.51995 17.3791 7.40232C17.2032 7.28468 16.9964 7.22185 16.7847 7.22176H16.7843C16.5007 7.2219 16.2287 7.3346 16.0281 7.53513C15.8274 7.73566 15.7146 8.00762 15.7144 8.29127ZM8.42258 20.3087C7.55329 20.2691 7.08081 20.1243 6.76682 20.002C6.35055 19.8399 6.05353 19.6469 5.74126 19.335C5.42898 19.0232 5.23568 18.7265 5.07433 18.3102C4.95193 17.9963 4.80713 17.5237 4.76762 16.6544C4.72439 15.7146 4.71576 15.4323 4.71576 13.0513C4.71576 10.6702 4.72511 10.3887 4.76762 9.44808C4.80721 8.57879 4.95307 8.1071 5.07433 7.79232C5.23639 7.37605 5.42941 7.07903 5.74126 6.76676C6.05311 6.45448 6.34983 6.26118 6.76682 6.09983C7.08067 5.97743 7.55329 5.83264 8.42258 5.79312C9.36241 5.74989 9.64472 5.74126 12.0247 5.74126C14.4046 5.74126 14.6872 5.75046 15.6279 5.79326C16.4971 5.83285 16.9688 5.97872 17.2836 6.09998C17.6999 6.26132 17.9969 6.45505 18.3092 6.7669C18.6215 7.07875 18.814 7.37619 18.9761 7.79247C19.0985 8.10631 19.2433 8.57894 19.2828 9.44822C19.326 10.3888 19.3347 10.6704 19.3347 13.0514C19.3347 15.4324 19.326 15.714 19.2828 16.6546C19.2432 17.5239 19.0977 17.9963 18.9761 18.3103C18.814 18.7266 18.621 19.0236 18.3092 19.3352C17.9973 19.6467 17.6999 19.84 17.2836 20.0021C16.9698 20.1245 16.4971 20.2693 15.6279 20.3088C14.688 20.352 14.4057 20.3607 12.0247 20.3607C9.64365 20.3607 9.36212 20.352 8.42258 20.3088M8.34875 4.18901C7.39958 4.23223 6.75099 4.38273 6.18456 4.60314C5.59831 4.83075 5.10137 5.13611 4.60513 5.63156C4.1089 6.12701 3.80432 6.62403 3.57671 7.21099C3.35631 7.77777 3.2058 8.42601 3.16258 9.37518C3.11864 10.3259 3.10858 10.6298 3.10858 13.0511C3.10858 15.4724 3.11864 15.7764 3.16258 16.727C3.2058 17.6763 3.35631 18.3244 3.57671 18.8912C3.80432 19.4775 4.10897 19.9754 4.60513 20.4707C5.10129 20.9659 5.5976 21.2708 6.18456 21.4991C6.75206 21.7195 7.39958 21.87 8.34875 21.9132C9.29992 21.9564 9.60335 21.9672 12.0247 21.9672C14.446 21.9672 14.7499 21.9572 15.7006 21.9132C16.6499 21.87 17.298 21.7195 17.8648 21.4991C18.451 21.2708 18.948 20.9661 19.4442 20.4707C19.9405 19.9752 20.2444 19.4775 20.4726 18.8912C20.6931 18.3244 20.8443 17.6762 20.8868 16.727C20.93 15.7757 20.9401 15.4724 20.9401 13.0511C20.9401 10.6298 20.93 10.3259 20.8868 9.37518C20.8436 8.42594 20.6931 7.77741 20.4726 7.21099C20.2444 6.62474 19.9397 6.12779 19.4442 5.63156C18.9488 5.13532 18.451 4.83075 17.8655 4.60314C17.298 4.38273 16.6498 4.23152 15.7013 4.18901C14.7505 4.14557 14.4467 4.13501 12.0258 4.13501C9.60478 4.13501 9.30028 4.14507 8.34911 4.18901" fill="#FEFEFA"/>
</g>
</g>
<defs>
<radialGradient id="paint0_radial_1_737" cx="0" cy="0" r="1" gradientUnits="userSpaceOnUse" gradientTransform="translate(1.55295 24.4742) scale(30.4711)">
<stop offset="0.09" stop-color="#FA8F21"/>
<stop offset="0.78" stop-color="#D82D7E"/>
</radialGradient>
<clipPath id="clip0_1_737">
<rect width="24" height="24" fill="white" transform="translate(0.320007 0.600098)"/>
</clipPath>
<clipPath id="clip1_1_737">
<rect width="24" height="24" fill="white" transform="translate(-0.000305176 1)"/>
</clipPath>
</defs>
</svg>
